<svg width="101" height="156" viewBox="0 0 101 156" fill="none" xmlns="http://www.w3.org/2000/svg">
<path d="M8.67578 27.4309L14.8778 24.8619L17.4468 31.0639L23.6488 33.6329L21.0798 39.8349L23.6488 46.0369L17.4468 48.6049L14.8778 54.8069L8.67578 52.2389M63.2228 83.2709L70.1068 76.3869L76.9908 83.2709H63.2228Z" stroke="white" stroke-width="0.583" stroke-miterlimit="10"/>
<path d="M8.67578 23.4624C17.7178 23.4624 25.0478 30.7924 25.0478 39.8344C25.0478 48.8764 17.7178 56.2064 8.67578 56.2064" stroke="#4A8B40" stroke-width="0.583" stroke-miterlimit="10"/>
<path d="M36.7874 39.3491C36.7874 39.7871 36.4324 40.1421 35.9944 40.1421C35.5564 40.1421 35.2014 39.7871 35.2014 39.3491C35.2014 38.9111 35.5564 38.5561 35.9944 38.5561C36.4324 38.5561 36.7874 38.9111 36.7874 39.3491Z" fill="#CC9D2F"/>
<path d="M35.4007 41.7644C35.4007 42.2024 35.0457 42.5574 34.6077 42.5574C34.1697 42.5574 33.8147 42.2024 33.8147 41.7644C33.8147 41.3264 34.1697 40.9714 34.6077 40.9714C35.0457 40.9714 35.4007 41.3264 35.4007 41.7644Z" fill="#CC9D2F"/>
<path d="M38.1741 41.7644C38.1741 42.2024 37.8191 42.5574 37.3811 42.5574C36.9431 42.5574 36.5881 42.2024 36.5881 41.7644C36.5881 41.3264 36.9431 40.9714 37.3811 40.9714C37.8191 40.9714 38.1741 41.3264 38.1741 41.7644Z" fill="#CC9D2F"/>
<path d="M35.4024 46.6894C35.4024 47.1274 35.0474 47.4824 34.6094 47.4824C34.1714 47.4824 33.8164 47.1274 33.8164 46.6894C33.8164 46.2514 34.1714 45.8964 34.6094 45.8964C35.0474 45.8964 35.4024 46.2514 35.4024 46.6894Z" fill="#CC9D2F"/>
<path d="M32.5484 46.6894C32.5484 47.1274 32.1934 47.4824 31.7554 47.4824C31.3174 47.4824 30.9614 47.1274 30.9614 46.6894C30.9614 46.2514 31.3174 45.8964 31.7554 45.8964C32.1934 45.8964 32.5484 46.2514 32.5484 46.6894Z" fill="#CC9D2F"/>
<path d="M41.1107 46.6894C41.1107 47.1274 40.7557 47.4824 40.3177 47.4824C39.8797 47.4824 39.5247 47.1274 39.5247 46.6894C39.5247 46.2514 39.8797 45.8964 40.3177 45.8964C40.7557 45.8964 41.1107 46.2514 41.1107 46.6894Z" fill="#CC9D2F"/>
<path d="M38.2564 46.6894C38.2564 47.1274 37.9014 47.4824 37.4634 47.4824C37.0254 47.4824 36.6704 47.1274 36.6704 46.6894C36.6704 46.2514 37.0254 45.8964 37.4634 45.8964C37.9014 45.8964 38.2564 46.2514 38.2564 46.6894Z" fill="#CC9D2F"/>
<path d="M34.086 44.1967C34.086 44.6347 33.731 44.9897 33.293 44.9897C32.855 44.9897 32.5 44.6347 32.5 44.1967C32.5 43.7587 32.855 43.4037 33.293 43.4037C33.731 43.4037 34.086 43.7587 34.086 44.1967Z" fill="#CC9D2F"/>
<path d="M36.8062 44.1967C36.8062 44.6347 36.4512 44.9897 36.0132 44.9897C35.5752 44.9897 35.2192 44.6347 35.2192 44.1967C35.2192 43.7587 35.5752 43.4037 36.0132 43.4037C36.4512 43.4037 36.8062 43.7587 36.8062 44.1967Z" fill="#CC9D2F"/>
<path d="M39.5262 44.1967C39.5262 44.6347 39.1712 44.9897 38.7332 44.9897C38.2952 44.9897 37.9402 44.6347 37.9402 44.1967C37.9402 43.7587 38.2952 43.4037 38.7332 43.4037C39.1712 43.4037 39.5262 43.7587 39.5262 44.1967Z" fill="#CC9D2F"/>
<path d="M63.7928 39.3491C63.7928 39.7871 63.4378 40.1421 62.9998 40.1421C62.5618 40.1421 62.2068 39.7871 62.2068 39.3491C62.2068 38.9111 62.5618 38.5561 62.9998 38.5561C63.4378 38.5561 63.7928 38.9111 63.7928 39.3491Z" fill="#CC9D2F"/>
<path d="M62.4061 41.7644C62.4061 42.2024 62.0511 42.5574 61.6131 42.5574C61.1751 42.5574 60.8201 42.2024 60.8201 41.7644C60.8201 41.3264 61.1751 40.9714 61.6131 40.9714C62.0511 40.9714 62.4061 41.3264 62.4061 41.7644Z" fill="#CC9D2F"/>
<path d="M65.1795 41.7644C65.1795 42.2024 64.8245 42.5574 64.3865 42.5574C63.9485 42.5574 63.5935 42.2024 63.5935 41.7644C63.5935 41.3264 63.9485 40.9714 64.3865 40.9714C64.8245 40.9714 65.1795 41.3264 65.1795 41.7644Z" fill="#CC9D2F"/>
<path d="M62.4078 46.6894C62.4078 47.1274 62.0528 47.4824 61.6148 47.4824C61.1768 47.4824 60.8208 47.1274 60.8208 46.6894C60.8208 46.2514 61.1768 45.8964 61.6148 45.8964C62.0528 45.8964 62.4078 46.2514 62.4078 46.6894Z" fill="#CC9D2F"/>
<path d="M59.5538 46.6894C59.5538 47.1274 59.1988 47.4824 58.7608 47.4824C58.3228 47.4824 57.9668 47.1274 57.9668 46.6894C57.9668 46.2514 58.3228 45.8964 58.7608 45.8964C59.1988 45.8964 59.5538 46.2514 59.5538 46.6894Z" fill="#CC9D2F"/>
<path d="M68.116 46.6894C68.116 47.1274 67.761 47.4824 67.323 47.4824C66.885 47.4824 66.53 47.1274 66.53 46.6894C66.53 46.2514 66.885 45.8964 67.323 45.8964C67.761 45.8964 68.116 46.2514 68.116 46.6894Z" fill="#CC9D2F"/>
<path d="M65.262 46.6894C65.262 47.1274 64.907 47.4824 64.469 47.4824C64.031 47.4824 63.675 47.1274 63.675 46.6894C63.675 46.2514 64.031 45.8964 64.469 45.8964C64.907 45.8964 65.262 46.2514 65.262 46.6894Z" fill="#CC9D2F"/>
<path d="M61.0914 44.1967C61.0914 44.6347 60.7364 44.9897 60.2984 44.9897C59.8604 44.9897 59.5054 44.6347 59.5054 44.1967C59.5054 43.7587 59.8604 43.4037 60.2984 43.4037C60.7364 43.4037 61.0914 43.7587 61.0914 44.1967Z" fill="#CC9D2F"/>
<path d="M63.8116 44.1967C63.8116 44.6347 63.4566 44.9897 63.0186 44.9897C62.5806 44.9897 62.2246 44.6347 62.2246 44.1967C62.2246 43.7587 62.5806 43.4037 63.0186 43.4037C63.4566 43.4037 63.8116 43.7587 63.8116 44.1967Z" fill="#CC9D2F"/>
<path d="M66.5318 44.1967C66.5318 44.6347 66.1768 44.9897 65.7388 44.9897C65.3008 44.9897 64.9448 44.6347 64.9448 44.1967C64.9448 43.7587 65.3008 43.4037 65.7388 43.4037C66.1768 43.4037 66.5318 43.7587 66.5318 44.1967Z" fill="#CC9D2F"/>
<path d="M52.1993 10.3704C52.1993 15.3544 49.5673 19.3944 49.5673 19.3944C49.5673 19.3944 46.9353 15.3544 46.9353 10.3704C46.9353 5.38638 49.5673 1.34638 49.5673 1.34638C49.5673 1.34638 52.1993 5.38638 52.1993 10.3704ZM58.6983 3.28938C63.0143 5.78138 65.1973 10.0814 65.1973 10.0814C65.1973 10.0814 60.3823 10.3404 56.0663 7.84838C51.7503 5.35638 49.5673 1.05738 49.5673 1.05738C49.5673 1.05738 54.3823 0.797379 58.6983 3.28938ZM40.4363 3.28938C44.7523 0.797379 49.5673 1.05738 49.5673 1.05738C49.5673 1.05738 47.3843 5.35638 43.0683 7.84838C38.7523 10.3404 33.9373 10.0814 33.9373 10.0814C33.9373 10.0814 36.1203 5.78138 40.4363 3.28938Z" stroke="white" stroke-width="0.583" stroke-miterlimit="10"/>
<path d="M78.8285 1.05699L49.5675 30.318L20.2495 0.999994" stroke="#4A8B40" stroke-width="0.583" stroke-miterlimit="10"/>
<path d="M49.6624 83.2709L56.5464 76.3869L63.4304 83.2709H49.6624ZM22.1264 83.2709L29.0104 76.3869L35.8944 83.2709H22.1264ZM35.8944 83.2709L42.7784 76.3869L49.6624 83.2709H35.8944ZM76.9904 83.2709L83.8744 76.3869L90.7584 83.2709H90.6424H8.4904H8.3584L15.2424 76.3869L22.1264 83.2709H76.9904ZM79.0854 39.1609L71.9214 31.9959L79.0854 24.8329V53.4879L71.9214 46.3239L79.0854 39.1609ZM8.6754 68.6849L19.4884 65.3939L8.6754 62.1029V68.6849ZM8.6754 75.2659L19.4884 71.9759L8.6754 68.6849V75.2659Z" stroke="white" stroke-width="0.583" stroke-miterlimit="10"/>
<path d="M25.9053 1.00078V3.82878M56.0173 12.3548L57.1023 16.4038L60.0663 13.4398L56.0173 12.3548ZM43.2883 12.3548L39.2403 13.4398L42.2043 16.4038L43.2883 12.3548ZM37.2793 1.03778L33.6493 1.03078V3.13378L37.2793 1.03778ZM62.0893 1.03778L65.7193 3.13378V1.03078L62.0893 1.03778ZM49.5673 21.2628V26.7708V21.2628ZM47.1853 21.2628V24.0908V21.2628ZM51.9483 21.2628V24.0908V21.2628ZM71.3163 1.00078V5.00478V1.00078ZM68.9353 1.00078V7.35778V1.00078ZM73.6983 1.00078V3.82878V1.00078ZM28.2873 1.00078V5.00478V1.00078ZM30.6683 1.00078V7.35778V1.00078Z" stroke="#CC9D2F" stroke-width="0.583" stroke-miterlimit="10"/>
<path d="M90.643 72.9246C87.899 72.9246 85.667 70.6916 85.667 67.9476C85.667 65.2036 87.899 62.9716 90.643 62.9716V72.9246Z" stroke="#4A8B40" stroke-width="0.583" stroke-miterlimit="10"/>
<path d="M90.643 57.6808C87.899 57.6808 85.667 55.4478 85.667 52.7038C85.667 49.9598 87.899 47.7278 90.643 47.7278V57.6808Z" stroke="#CC9D2F" stroke-width="0.583" stroke-miterlimit="10"/>
<path d="M90.643 42.4557C87.899 42.4557 85.667 40.2227 85.667 37.4787C85.667 34.7347 87.899 32.5027 90.643 32.5027V42.4557Z" stroke="#4A8B40" stroke-width="0.583" stroke-miterlimit="10"/>
<path d="M90.643 27.2305C87.899 27.2305 85.667 24.9975 85.667 22.2535C85.667 19.5095 87.899 17.2775 90.643 17.2775V27.2305Z" stroke="#CC9D2F" stroke-width="0.583" stroke-miterlimit="10"/>
<path d="M55.0889 67.6231L49.5669 73.1451L44.0449 67.6231M44.1249 55.2031L49.5669 49.7621L55.0889 55.2841" stroke="#4A8B40" stroke-width="0.583" stroke-miterlimit="10"/>
<path d="M8.67523 39.8348L20.2472 28.2628M76.9902 78.9558L75.1442 77.1098L76.9902 75.2638L78.8362 77.1098L76.9902 78.9558ZM22.1262 78.9558L20.2802 77.1098L22.1262 75.2638L23.9722 77.1098L22.1262 78.9558ZM35.8942 78.9558L34.0482 77.1098L35.8942 75.2638L37.7402 77.1098L35.8942 78.9558ZM63.2222 78.9558L61.3762 77.1098L63.2222 75.2638L65.0682 77.1098L63.2222 78.9558ZM8.67523 39.8348H25.0472H8.67523ZM8.61523 39.7748L20.2472 51.4068L8.61523 39.7748Z" stroke="#CC9D2F" stroke-width="0.583" stroke-miterlimit="10"/>
<path d="M19.2141 35.7969C19.2141 36.3389 18.7741 36.7789 18.2321 36.7789C17.6901 36.7789 17.2501 36.3389 17.2501 35.7969C17.2501 35.2549 17.6901 34.8149 18.2321 34.8149C18.7741 34.8149 19.2141 35.2549 19.2141 35.7969ZM13.6491 29.9059C13.6491 30.4479 13.2091 30.8879 12.6671 30.8879C12.1251 30.8879 11.6851 30.4479 11.6851 29.9059C11.6851 29.3639 12.1251 28.9239 12.6671 28.9239C13.2091 28.9239 13.6491 29.3639 13.6491 29.9059ZM13.6491 49.2619C13.6491 49.8039 13.2091 50.2439 12.6671 50.2439C12.1251 50.2439 11.6851 49.8039 11.6851 49.2619C11.6851 48.7199 12.1251 48.2799 12.6671 48.2799C13.2091 48.2799 13.6491 48.7199 13.6491 49.2619ZM19.2141 43.6519C19.2141 44.1939 18.7741 44.6329 18.2321 44.6329C17.6901 44.6329 17.2501 44.1939 17.2501 43.6519C17.2501 43.1089 17.6901 42.6699 18.2321 42.6699C18.7741 42.6699 19.2141 43.1089 19.2141 43.6519ZM53.3551 61.4529C53.3551 67.9929 58.6571 73.2939 65.1961 73.2939C71.7361 73.2939 77.0371 67.9929 77.0371 61.4529C77.0371 54.9139 71.7361 49.6129 65.1961 49.6129C58.6571 49.6129 53.3551 54.9139 53.3551 61.4529ZM22.0961 61.4529C22.0961 67.9929 27.3971 73.2939 33.9371 73.2939C40.4761 73.2939 45.7771 67.9929 45.7771 61.4529C45.7771 54.9139 40.4761 49.6129 33.9371 49.6129C27.3971 49.6129 22.0961 54.9139 22.0961 61.4529Z" stroke="white" stroke-width="0.583" stroke-miterlimit="10"/>
<path d="M54.7529 61.4533C54.7529 67.2213 59.4289 71.8963 65.1959 71.8963C70.9639 71.8963 75.6399 67.2213 75.6399 61.4533C75.6399 55.6853 70.9639 51.0093 65.1959 51.0093C59.4289 51.0093 54.7529 55.6853 54.7529 61.4533Z" stroke="#CC9D2F" stroke-width="0.583" stroke-miterlimit="10"/>
<path d="M65.1961 68.2799C61.4321 68.2799 58.3691 65.2179 58.3691 61.4529C58.3691 57.6889 61.4321 54.6269 65.1961 54.6269C68.9601 54.6269 72.0231 57.6889 72.0231 61.4529C72.0231 65.2179 68.9601 68.2799 65.1961 68.2799Z" stroke="white" stroke-width="0.583" stroke-miterlimit="10"/>
<path d="M23.4932 61.4533C23.4932 67.2213 28.1692 71.8963 33.9362 71.8963C39.7042 71.8963 44.3802 67.2213 44.3802 61.4533C44.3802 55.6853 39.7042 51.0093 33.9362 51.0093C28.1692 51.0093 23.4932 55.6853 23.4932 61.4533Z" stroke="#CC9D2F" stroke-width="0.583" stroke-miterlimit="10"/>
<path d="M33.9366 68.2799C30.1726 68.2799 27.1096 65.2179 27.1096 61.4529C27.1096 57.6889 30.1726 54.6269 33.9366 54.6269C37.7006 54.6269 40.7636 57.6889 40.7636 61.4529C40.7636 65.2179 37.7006 68.2799 33.9366 68.2799Z" stroke="white" stroke-width="0.583" stroke-miterlimit="10"/>
<path d="M8.61523 1.0004L49.5662 41.9514L90.5182 1.0004V7.0054L49.5662 47.9574L8.61523 7.0054V1.0004Z" stroke="#4A8B40" stroke-width="0.583" stroke-miterlimit="10"/>
<path d="M52.8394 42.1637C52.8394 42.4917 52.5734 42.7587 52.2444 42.7587C51.9164 42.7587 51.6504 42.4917 51.6504 42.1637C51.6504 41.8357 51.9164 41.5687 52.2444 41.5687C52.5734 41.5687 52.8394 41.8357 52.8394 42.1637Z" fill="white"/>
<path d="M52.8394 42.1637C52.8394 42.4917 52.5734 42.7587 52.2444 42.7587C51.9164 42.7587 51.6504 42.4917 51.6504 42.1637C51.6504 41.8357 51.9164 41.5687 52.2444 41.5687C52.5734 41.5687 52.8394 41.8357 52.8394 42.1637Z" stroke="white" stroke-width="0.204" stroke-miterlimit="10"/>
<path d="M55.5464 39.4586C55.5464 39.7866 55.2804 40.0536 54.9514 40.0536C54.6234 40.0536 54.3574 39.7866 54.3574 39.4586C54.3574 39.1306 54.6234 38.8636 54.9514 38.8636C55.2804 38.8636 55.5464 39.1306 55.5464 39.4586Z" fill="white"/>
<path d="M55.5464 39.4586C55.5464 39.7866 55.2804 40.0536 54.9514 40.0536C54.6234 40.0536 54.3574 39.7866 54.3574 39.4586C54.3574 39.1306 54.6234 38.8636 54.9514 38.8636C55.2804 38.8636 55.5464 39.1306 55.5464 39.4586Z" stroke="white" stroke-width="0.204" stroke-miterlimit="10"/>
<path d="M58.2535 36.7537C58.2535 37.0817 57.9875 37.3487 57.6585 37.3487C57.3305 37.3487 57.0645 37.0817 57.0645 36.7537C57.0645 36.4257 57.3305 36.1587 57.6585 36.1587C57.9875 36.1587 58.2535 36.4257 58.2535 36.7537Z" fill="white"/>
<path d="M58.2535 36.7537C58.2535 37.0817 57.9875 37.3487 57.6585 37.3487C57.3305 37.3487 57.0645 37.0817 57.0645 36.7537C57.0645 36.4257 57.3305 36.1587 57.6585 36.1587C57.9875 36.1587 58.2535 36.4257 58.2535 36.7537Z" stroke="white" stroke-width="0.204" stroke-miterlimit="10"/>
<path d="M60.9595 34.0486C60.9595 34.3766 60.6935 34.6436 60.3645 34.6436C60.0365 34.6436 59.7705 34.3766 59.7705 34.0486C59.7705 33.7206 60.0365 33.4536 60.3645 33.4536C60.6935 33.4536 60.9595 33.7206 60.9595 34.0486Z" fill="white"/>
<path d="M60.9595 34.0486C60.9595 34.3766 60.6935 34.6436 60.3645 34.6436C60.0365 34.6436 59.7705 34.3766 59.7705 34.0486C59.7705 33.7206 60.0365 33.4536 60.3645 33.4536C60.6935 33.4536 60.9595 33.7206 60.9595 34.0486Z" stroke="white" stroke-width="0.204" stroke-miterlimit="10"/>
<path d="M63.6665 31.3437C63.6665 31.6717 63.4005 31.9387 63.0715 31.9387C62.7435 31.9387 62.4775 31.6717 62.4775 31.3437C62.4775 31.0157 62.7435 30.7487 63.0715 30.7487C63.4005 30.7487 63.6665 31.0157 63.6665 31.3437Z" fill="white"/>
<path d="M63.6665 31.3437C63.6665 31.6717 63.4005 31.9387 63.0715 31.9387C62.7435 31.9387 62.4775 31.6717 62.4775 31.3437C62.4775 31.0157 62.7435 30.7487 63.0715 30.7487C63.4005 30.7487 63.6665 31.0157 63.6665 31.3437Z" stroke="white" stroke-width="0.204" stroke-miterlimit="10"/>
<path d="M66.3726 28.6387C66.3726 28.9667 66.1066 29.2337 65.7776 29.2337C65.4496 29.2337 65.1836 28.9667 65.1836 28.6387C65.1836 28.3107 65.4496 28.0437 65.7776 28.0437C66.1066 28.0437 66.3726 28.3107 66.3726 28.6387Z" fill="white"/>
<path d="M66.3726 28.6387C66.3726 28.9667 66.1066 29.2337 65.7776 29.2337C65.4496 29.2337 65.1836 28.9667 65.1836 28.6387C65.1836 28.3107 65.4496 28.0437 65.7776 28.0437C66.1066 28.0437 66.3726 28.3107 66.3726 28.6387Z" stroke="white" stroke-width="0.204" stroke-miterlimit="10"/>
<path d="M69.0796 25.9335C69.0796 26.2615 68.8136 26.5285 68.4846 26.5285C68.1566 26.5285 67.8906 26.2615 67.8906 25.9335C67.8906 25.6055 68.1566 25.3385 68.4846 25.3385C68.8136 25.3385 69.0796 25.6055 69.0796 25.9335Z" fill="white"/>
<path d="M69.0796 25.9335C69.0796 26.2615 68.8136 26.5285 68.4846 26.5285C68.1566 26.5285 67.8906 26.2615 67.8906 25.9335C67.8906 25.6055 68.1566 25.3385 68.4846 25.3385C68.8136 25.3385 69.0796 25.6055 69.0796 25.9335Z" stroke="white" stroke-width="0.204" stroke-miterlimit="10"/>
<path d="M71.7857 23.2285C71.7857 23.5565 71.5197 23.8235 71.1907 23.8235C70.8627 23.8235 70.5967 23.5565 70.5967 23.2285C70.5967 22.9005 70.8627 22.6335 71.1907 22.6335C71.5197 22.6335 71.7857 22.9005 71.7857 23.2285Z" fill="white"/>
<path d="M71.7857 23.2285C71.7857 23.5565 71.5197 23.8235 71.1907 23.8235C70.8627 23.8235 70.5967 23.5565 70.5967 23.2285C70.5967 22.9005 70.8627 22.6335 71.1907 22.6335C71.5197 22.6335 71.7857 22.9005 71.7857 23.2285Z" stroke="white" stroke-width="0.204" stroke-miterlimit="10"/>
<path d="M74.4927 20.5236C74.4927 20.8516 74.2267 21.1186 73.8977 21.1186C73.5697 21.1186 73.3037 20.8516 73.3037 20.5236C73.3037 20.1956 73.5697 19.9286 73.8977 19.9286C74.2267 19.9286 74.4927 20.1956 74.4927 20.5236Z" fill="white"/>
<path d="M74.4927 20.5236C74.4927 20.8516 74.2267 21.1186 73.8977 21.1186C73.5697 21.1186 73.3037 20.8516 73.3037 20.5236C73.3037 20.1956 73.5697 19.9286 73.8977 19.9286C74.2267 19.9286 74.4927 20.1956 74.4927 20.5236Z" stroke="white" stroke-width="0.204" stroke-miterlimit="10"/>
<path d="M77.1997 17.8185C77.1997 18.1465 76.9337 18.4135 76.6047 18.4135C76.2767 18.4135 76.0107 18.1465 76.0107 17.8185C76.0107 17.4905 76.2767 17.2235 76.6047 17.2235C76.9337 17.2235 77.1997 17.4905 77.1997 17.8185Z" fill="white"/>
<path d="M77.1997 17.8185C77.1997 18.1465 76.9337 18.4135 76.6047 18.4135C76.2767 18.4135 76.0107 18.1465 76.0107 17.8185C76.0107 17.4905 76.2767 17.2235 76.6047 17.2235C76.9337 17.2235 77.1997 17.4905 77.1997 17.8185Z" stroke="white" stroke-width="0.204" stroke-miterlimit="10"/>
<path d="M79.9058 15.1134C79.9058 15.4414 79.6398 15.7084 79.3108 15.7084C78.9828 15.7084 78.7168 15.4414 78.7168 15.1134C78.7168 14.7854 78.9828 14.5184 79.3108 14.5184C79.6398 14.5184 79.9058 14.7854 79.9058 15.1134Z" fill="white"/>
<path d="M79.9058 15.1134C79.9058 15.4414 79.6398 15.7084 79.3108 15.7084C78.9828 15.7084 78.7168 15.4414 78.7168 15.1134C78.7168 14.7854 78.9828 14.5184 79.3108 14.5184C79.6398 14.5184 79.9058 14.7854 79.9058 15.1134Z" stroke="white" stroke-width="0.204" stroke-miterlimit="10"/>
<path d="M82.6128 12.4085C82.6128 12.7365 82.3468 13.0035 82.0178 13.0035C81.6898 13.0035 81.4238 12.7365 81.4238 12.4085C81.4238 12.0805 81.6898 11.8135 82.0178 11.8135C82.3468 11.8135 82.6128 12.0805 82.6128 12.4085Z" fill="white"/>
<path d="M82.6128 12.4085C82.6128 12.7365 82.3468 13.0035 82.0178 13.0035C81.6898 13.0035 81.4238 12.7365 81.4238 12.4085C81.4238 12.0805 81.6898 11.8135 82.0178 11.8135C82.3468 11.8135 82.6128 12.0805 82.6128 12.4085Z" stroke="white" stroke-width="0.204" stroke-miterlimit="10"/>
<path d="M85.3189 9.70337C85.3189 10.0314 85.0529 10.2984 84.7239 10.2984C84.3959 10.2984 84.1299 10.0314 84.1299 9.70337C84.1299 9.37537 84.3959 9.10837 84.7239 9.10837C85.0529 9.10837 85.3189 9.37537 85.3189 9.70337Z" fill="white"/>
<path d="M85.3189 9.70337C85.3189 10.0314 85.0529 10.2984 84.7239 10.2984C84.3959 10.2984 84.1299 10.0314 84.1299 9.70337C84.1299 9.37537 84.3959 9.10837 84.7239 9.10837C85.0529 9.10837 85.3189 9.37537 85.3189 9.70337Z" stroke="white" stroke-width="0.204" stroke-miterlimit="10"/>
<path d="M88.0259 6.99838C88.0259 7.32638 87.7599 7.59338 87.4309 7.59338C87.1029 7.59338 86.8369 7.32638 86.8369 6.99838C86.8369 6.67038 87.1029 6.40338 87.4309 6.40338C87.7599 6.40338 88.0259 6.67038 88.0259 6.99838Z" fill="white"/>
<path d="M88.0259 6.99838C88.0259 7.32638 87.7599 7.59338 87.4309 7.59338C87.1029 7.59338 86.8369 7.32638 86.8369 6.99838C86.8369 6.67038 87.1029 6.40338 87.4309 6.40338C87.7599 6.40338 88.0259 6.67038 88.0259 6.99838Z" stroke="white" stroke-width="0.204" stroke-miterlimit="10"/>
<path d="M50.1333 44.8687C50.1333 45.1967 49.8673 45.4637 49.5383 45.4637C49.2103 45.4637 48.9443 45.1967 48.9443 44.8687C48.9443 44.5407 49.2103 44.2737 49.5383 44.2737C49.8673 44.2737 50.1333 44.5407 50.1333 44.8687Z" fill="white"/>
<path d="M50.1333 44.8687C50.1333 45.1967 49.8673 45.4637 49.5383 45.4637C49.2103 45.4637 48.9443 45.1967 48.9443 44.8687C48.9443 44.5407 49.2103 44.2737 49.5383 44.2737C49.8673 44.2737 50.1333 44.5407 50.1333 44.8687Z" stroke="white" stroke-width="0.204" stroke-miterlimit="10"/>
<path d="M46.2373 42.1637C46.2373 42.4917 46.5033 42.7587 46.8323 42.7587C47.1603 42.7587 47.4263 42.4917 47.4263 42.1637C47.4263 41.8357 47.1603 41.5687 46.8323 41.5687C46.5033 41.5687 46.2373 41.8357 46.2373 42.1637Z" fill="white"/>
<path d="M46.2373 42.1637C46.2373 42.4917 46.5033 42.7587 46.8323 42.7587C47.1603 42.7587 47.4263 42.4917 47.4263 42.1637C47.4263 41.8357 47.1603 41.5687 46.8323 41.5687C46.5033 41.5687 46.2373 41.8357 46.2373 42.1637Z" stroke="white" stroke-width="0.204" stroke-miterlimit="10"/>
<path d="M43.5303 39.4586C43.5303 39.7866 43.7963 40.0536 44.1253 40.0536C44.4533 40.0536 44.7193 39.7866 44.7193 39.4586C44.7193 39.1306 44.4533 38.8636 44.1253 38.8636C43.7963 38.8636 43.5303 39.1306 43.5303 39.4586Z" fill="white"/>
<path d="M43.5303 39.4586C43.5303 39.7866 43.7963 40.0536 44.1253 40.0536C44.4533 40.0536 44.7193 39.7866 44.7193 39.4586C44.7193 39.1306 44.4533 38.8636 44.1253 38.8636C43.7963 38.8636 43.5303 39.1306 43.5303 39.4586Z" stroke="white" stroke-width="0.204" stroke-miterlimit="10"/>
<path d="M40.8242 36.7537C40.8242 37.0817 41.0902 37.3487 41.4192 37.3487C41.7472 37.3487 42.0132 37.0817 42.0132 36.7537C42.0132 36.4257 41.7472 36.1587 41.4192 36.1587C41.0902 36.1587 40.8242 36.4257 40.8242 36.7537Z" fill="white"/>
<path d="M40.8242 36.7537C40.8242 37.0817 41.0902 37.3487 41.4192 37.3487C41.7472 37.3487 42.0132 37.0817 42.0132 36.7537C42.0132 36.4257 41.7472 36.1587 41.4192 36.1587C41.0902 36.1587 40.8242 36.4257 40.8242 36.7537Z" stroke="white" stroke-width="0.204" stroke-miterlimit="10"/>
<path d="M38.1172 34.0486C38.1172 34.3766 38.3832 34.6436 38.7122 34.6436C39.0402 34.6436 39.3062 34.3766 39.3062 34.0486C39.3062 33.7206 39.0402 33.4536 38.7122 33.4536C38.3832 33.4536 38.1172 33.7206 38.1172 34.0486Z" fill="white"/>
<path d="M38.1172 34.0486C38.1172 34.3766 38.3832 34.6436 38.7122 34.6436C39.0402 34.6436 39.3062 34.3766 39.3062 34.0486C39.3062 33.7206 39.0402 33.4536 38.7122 33.4536C38.3832 33.4536 38.1172 33.7206 38.1172 34.0486Z" stroke="white" stroke-width="0.204" stroke-miterlimit="10"/>
<path d="M35.4102 31.3437C35.4102 31.6717 35.6762 31.9387 36.0052 31.9387C36.3332 31.9387 36.5992 31.6717 36.5992 31.3437C36.5992 31.0157 36.3332 30.7487 36.0052 30.7487C35.6762 30.7487 35.4102 31.0157 35.4102 31.3437Z" fill="white"/>
<path d="M35.4102 31.3437C35.4102 31.6717 35.6762 31.9387 36.0052 31.9387C36.3332 31.9387 36.5992 31.6717 36.5992 31.3437C36.5992 31.0157 36.3332 30.7487 36.0052 30.7487C35.6762 30.7487 35.4102 31.0157 35.4102 31.3437Z" stroke="white" stroke-width="0.204" stroke-miterlimit="10"/>
<path d="M32.7041 28.6387C32.7041 28.9667 32.9701 29.2337 33.2991 29.2337C33.6271 29.2337 33.8931 28.9667 33.8931 28.6387C33.8931 28.3107 33.6271 28.0437 33.2991 28.0437C32.9701 28.0437 32.7041 28.3107 32.7041 28.6387Z" fill="white"/>
<path d="M32.7041 28.6387C32.7041 28.9667 32.9701 29.2337 33.2991 29.2337C33.6271 29.2337 33.8931 28.9667 33.8931 28.6387C33.8931 28.3107 33.6271 28.0437 33.2991 28.0437C32.9701 28.0437 32.7041 28.3107 32.7041 28.6387Z" stroke="white" stroke-width="0.204" stroke-miterlimit="10"/>
<path d="M29.9971 25.9335C29.9971 26.2615 30.2631 26.5285 30.5921 26.5285C30.9201 26.5285 31.1861 26.2615 31.1861 25.9335C31.1861 25.6055 30.9201 25.3385 30.5921 25.3385C30.2631 25.3385 29.9971 25.6055 29.9971 25.9335Z" fill="white"/>
<path d="M29.9971 25.9335C29.9971 26.2615 30.2631 26.5285 30.5921 26.5285C30.9201 26.5285 31.1861 26.2615 31.1861 25.9335C31.1861 25.6055 30.9201 25.3385 30.5921 25.3385C30.2631 25.3385 29.9971 25.6055 29.9971 25.9335Z" stroke="white" stroke-width="0.204" stroke-miterlimit="10"/>
<path d="M27.291 23.2285C27.291 23.5565 27.557 23.8235 27.886 23.8235C28.214 23.8235 28.48 23.5565 28.48 23.2285C28.48 22.9005 28.214 22.6335 27.886 22.6335C27.557 22.6335 27.291 22.9005 27.291 23.2285Z" fill="white"/>
<path d="M27.291 23.2285C27.291 23.5565 27.557 23.8235 27.886 23.8235C28.214 23.8235 28.48 23.5565 28.48 23.2285C28.48 22.9005 28.214 22.6335 27.886 22.6335C27.557 22.6335 27.291 22.9005 27.291 23.2285Z" stroke="white" stroke-width="0.204" stroke-miterlimit="10"/>
<path d="M24.584 20.5236C24.584 20.8516 24.85 21.1186 25.179 21.1186C25.507 21.1186 25.773 20.8516 25.773 20.5236C25.773 20.1956 25.507 19.9286 25.179 19.9286C24.85 19.9286 24.584 20.1956 24.584 20.5236Z" fill="white"/>
<path d="M24.584 20.5236C24.584 20.8516 24.85 21.1186 25.179 21.1186C25.507 21.1186 25.773 20.8516 25.773 20.5236C25.773 20.1956 25.507 19.9286 25.179 19.9286C24.85 19.9286 24.584 20.1956 24.584 20.5236Z" stroke="white" stroke-width="0.204" stroke-miterlimit="10"/>
<path d="M21.8779 17.8185C21.8779 18.1465 22.1439 18.4135 22.4729 18.4135C22.8009 18.4135 23.0669 18.1465 23.0669 17.8185C23.0669 17.4905 22.8009 17.2235 22.4729 17.2235C22.1439 17.2235 21.8779 17.4905 21.8779 17.8185Z" fill="white"/>
<path d="M21.8779 17.8185C21.8779 18.1465 22.1439 18.4135 22.4729 18.4135C22.8009 18.4135 23.0669 18.1465 23.0669 17.8185C23.0669 17.4905 22.8009 17.2235 22.4729 17.2235C22.1439 17.2235 21.8779 17.4905 21.8779 17.8185Z" stroke="white" stroke-width="0.204" stroke-miterlimit="10"/>
<path d="M19.1709 15.1134C19.1709 15.4414 19.4369 15.7084 19.7659 15.7084C20.0939 15.7084 20.3599 15.4414 20.3599 15.1134C20.3599 14.7854 20.0939 14.5184 19.7659 14.5184C19.4369 14.5184 19.1709 14.7854 19.1709 15.1134Z" fill="white"/>
<path d="M19.1709 15.1134C19.1709 15.4414 19.4369 15.7084 19.7659 15.7084C20.0939 15.7084 20.3599 15.4414 20.3599 15.1134C20.3599 14.7854 20.0939 14.5184 19.7659 14.5184C19.4369 14.5184 19.1709 14.7854 19.1709 15.1134Z" stroke="white" stroke-width="0.204" stroke-miterlimit="10"/>
<path d="M16.4639 12.4085C16.4639 12.7365 16.7299 13.0035 17.0589 13.0035C17.3869 13.0035 17.6529 12.7365 17.6529 12.4085C17.6529 12.0805 17.3869 11.8135 17.0589 11.8135C16.7299 11.8135 16.4639 12.0805 16.4639 12.4085Z" fill="white"/>
<path d="M16.4639 12.4085C16.4639 12.7365 16.7299 13.0035 17.0589 13.0035C17.3869 13.0035 17.6529 12.7365 17.6529 12.4085C17.6529 12.0805 17.3869 11.8135 17.0589 11.8135C16.7299 11.8135 16.4639 12.0805 16.4639 12.4085Z" stroke="white" stroke-width="0.204" stroke-miterlimit="10"/>
<path d="M13.7578 9.70337C13.7578 10.0314 14.0238 10.2984 14.3528 10.2984C14.6808 10.2984 14.9468 10.0314 14.9468 9.70337C14.9468 9.37537 14.6808 9.10837 14.3528 9.10837C14.0238 9.10837 13.7578 9.37537 13.7578 9.70337Z" fill="white"/>
<path d="M13.7578 9.70337C13.7578 10.0314 14.0238 10.2984 14.3528 10.2984C14.6808 10.2984 14.9468 10.0314 14.9468 9.70337C14.9468 9.37537 14.6808 9.10837 14.3528 9.10837C14.0238 9.10837 13.7578 9.37537 13.7578 9.70337Z" stroke="white" stroke-width="0.204" stroke-miterlimit="10"/>
<path d="M11.0508 6.99838C11.0508 7.32638 11.3168 7.59338 11.6458 7.59338C11.9738 7.59338 12.2398 7.32638 12.2398 6.99838C12.2398 6.67038 11.9738 6.40338 11.6458 6.40338C11.3168 6.40338 11.0508 6.67038 11.0508 6.99838Z" fill="white"/>
<path d="M11.0508 6.99838C11.0508 7.32638 11.3168 7.59338 11.6458 7.59338C11.9738 7.59338 12.2398 7.32638 12.2398 6.99838C12.2398 6.67038 11.9738 6.40338 11.6458 6.40338C11.3168 6.40338 11.0508 6.67038 11.0508 6.99838Z" stroke="white" stroke-width="0.204" stroke-miterlimit="10"/>
<path d="M90.6428 45.0922V60.3172C86.4378 60.3172 83.0298 56.9092 83.0298 52.7042C83.0298 48.5002 86.4378 45.0922 90.6428 45.0922ZM90.6428 45.0922C86.4378 45.0922 83.0298 41.6832 83.0298 37.4792C83.0298 33.2752 86.4378 29.8662 90.6428 29.8662M90.6428 45.0922V29.8662M90.6428 29.8662C86.4378 29.8662 83.0298 26.4582 83.0298 22.2542C83.0298 18.0502 86.4378 14.6412 90.6428 14.6412V29.8662ZM82.1048 1.03116L49.5668 33.5302L17.0328 1.03116H82.1048ZM83.0298 67.9482C83.0298 72.1522 86.4378 75.5612 90.6428 75.5612V60.3362C86.4378 60.3362 83.0298 63.7442 83.0298 67.9482ZM8.6748 20.2232V59.4462C19.5058 59.4462 28.2868 50.6662 28.2868 39.8342C28.2868 29.0032 19.5058 20.2232 8.6748 20.2232Z" stroke="white" stroke-width="0.583" stroke-miterlimit="10"/>
<path d="M24.636 98.8178C25.519 104.811 28.019 118.931 29.931 125.255L25.85 125.954C25.371 121.395 22.908 108.525 21.731 103.23C19.341 109.665 16.106 120.439 14.929 125.108L12.318 125.77C11.289 121.1 7.612 108.268 5.736 103.194C4.082 110.327 2.39 121.395 1.802 125.292L0 125.55C1.177 122.167 3.898 108.305 5.369 99.5898L8.163 98.8178C9.266 103.782 12.465 113.967 14.855 120.99C17.025 114.666 19.856 105.951 21.621 99.5528L24.636 98.8178Z" fill="white"/>
<path d="M50.1271 98.7441C52.1861 105.215 57.7751 119.151 60.7171 125.292L56.3781 125.623C55.6061 123.269 53.9141 118.269 52.1501 113.305C49.2451 113.195 46.1931 113.268 43.3611 113.305C41.4131 118.269 39.7211 122.938 39.1331 125.255L37.1841 125.623C38.8391 122.755 44.5381 108.231 47.6271 99.5901L50.1271 98.7441ZM47.7371 102.164C45.0901 108.929 44.3911 110.731 43.6931 112.496C46.3031 112.606 49.2451 112.68 51.8921 112.569C50.3851 108.341 48.8031 104.37 47.7371 102.164Z" fill="white"/>
<path d="M72.6351 99.1118C72.3411 109.15 72.2671 115.548 72.6711 125.329H69.0681C69.3621 115.511 69.2891 109.113 69.1051 99.1118H72.6351Z" fill="white"/>
<path d="M83.104 99.1118C86.818 99.1118 95.753 99.2218 99.907 99.0748C96.819 103.672 88.619 119.372 86.229 124.704C90.568 124.814 97.407 124.63 100.717 123.858L100.165 125.402H81.376C84.354 120.806 92.885 104.701 95.164 99.8468C91.414 99.6638 85.2 99.7738 82.479 101.061L83.104 99.1118Z" fill="white"/>
<path d="M49.5575 153.002C48.8685 153.002 48.5115 153.359 48.5115 154.048C48.5115 154.737 48.8685 155.069 49.5575 155.069C50.2465 155.069 50.6035 154.737 50.6035 154.071C50.6035 153.477 50.1045 153.002 49.5575 153.002Z" fill="white"/>
<path d="M52.67 153.002C51.981 153.002 51.625 153.359 51.625 154.048C51.625 154.737 51.981 155.069 52.67 155.069C53.383 155.069 53.739 154.737 53.739 154.071C53.739 153.477 53.264 153.002 52.67 153.002Z" fill="white"/>
<path d="M62.8164 148.701C61.2954 148.701 60.3454 147.062 60.3454 144.709C60.3454 143.353 60.6064 142.31 61.1294 141.525C61.7244 140.621 62.6264 140.17 63.7904 140.17C64.2414 140.17 64.7644 140.266 65.3594 140.431L65.5974 142.238C65.7404 143.308 65.8104 144.162 65.8104 144.805C65.8104 147.393 64.8124 148.701 62.8164 148.701ZM38.0814 148.701V146.146C38.0984 144.615 38.1534 143.01 38.2424 139.805L38.2444 139.745H36.5534V139.805C36.5554 139.92 36.5554 140.031 36.5574 140.141C36.5744 141.254 36.5894 142.178 36.6014 142.962V142.986C36.6104 143.8 36.6224 144.457 36.6294 145.016V149.747C36.6294 150.625 36.4164 151.434 35.9654 152.218C35.3464 153.24 34.6924 153.924 33.4814 154.373L35.4494 154.298C37.0834 153.31 37.9544 151.702 38.0794 149.461L38.0814 148.701ZM53.6924 148.872C53.7094 147.342 53.7644 143.01 53.8534 139.805L53.8554 139.745H52.1644V139.805C52.1664 139.92 52.1664 140.031 52.1694 140.141C52.1854 141.254 52.2004 142.178 52.2124 142.962C52.2244 143.903 52.2364 144.639 52.2434 145.251V149.163L53.6924 148.872ZM37.7504 149.841H62.2694C65.4554 149.841 67.0464 148.487 67.0464 145.755V142.096L67.2354 139.767C66.3574 139.457 65.3834 139.292 64.3134 139.292C62.6504 139.292 61.3194 139.839 60.3214 140.906C59.3474 141.976 58.8484 143.401 58.8484 145.184C58.8484 146.657 59.2054 147.823 59.8944 148.701H55.8544H37.7504" fill="white"/>
<path d="M38.3127 135.652C38.3127 136.233 37.8417 136.704 37.2607 136.704C36.6797 136.704 36.2087 136.233 36.2087 135.652C36.2087 135.071 36.6797 134.6 37.2607 134.6C37.8417 134.6 38.3127 135.071 38.3127 135.652Z" fill="white"/>
</svg>
